<?xml version="1.0" standalone="no"?>
<!DOCTYPE svg PUBLIC "-//W3C//DTD SVG 20010904//EN"
 "http://www.w3.org/TR/2001/REC-SVG-20010904/DTD/svg10.dtd">
<svg version="1.0" xmlns="http://www.w3.org/2000/svg"
 width="1024.000000pt" height="1024.000000pt" viewBox="0 0 1024.000000 1024.000000"
 preserveAspectRatio="xMidYMid meet">

<g transform="translate(0.000000,1024.000000) scale(0.100000,-0.100000)"
fill="#FFE4C4FF" stroke="none">
<path d="M4949 7960 c-36 -5 -95 -16 -130 -26 -79 -21 -262 -108 -349 -165
-99 -66 -246 -218 -324 -336 -78 -118 -111 -190 -155 -325 -62 -195 -61 -179
-61 -1210 l0 -940 31 -30 c29 -30 32 -30 105 -26 46 3 81 11 89 19 11 11 14
195 19 982 l6 969 29 126 c30 126 105 306 137 325 8 4 21 21 29 37 9 16 30 45
49 63 18 18 37 40 42 48 15 25 125 104 204 147 128 69 225 94 376 100 208 7
343 -28 524 -135 101 -60 239 -187 297 -273 42 -63 97 -197 129 -315 l28 -100
5 -973 6 -974 24 -19 c32 -26 181 -28 202 -2 12 13 14 176 14 972 l0 956 -23
100 c-91 401 -270 669 -559 838 -169 99 -330 150 -523 167 -127 11 -127 11
-221 0z"/>
<path d="M4904 7496 c-106 -34 -171 -73 -257 -156 -106 -100 -168 -198 -215
-335 l-37 -110 -1 -580 c0 -319 1 -753 4 -965 l5 -385 32 -32 c30 -30 39 -33
93 -33 45 0 66 5 86 21 l26 20 0 463 0 463 452 6 c249 3 456 3 460 1 5 -3 8
-210 8 -460 l0 -455 26 -25 c24 -24 30 -26 109 -23 51 3 89 9 97 17 10 10 13
199 13 975 l0 962 -29 100 c-71 246 -167 377 -346 469 -125 65 -211 86 -345
86 -86 -1 -125 -6 -181 -24z m288 -227 c91 -19 172 -64 228 -127 100 -112 139
-236 140 -448 l0 -111 -206 -6 c-114 -3 -321 -3 -462 0 l-254 6 4 176 c4 168
6 180 35 252 33 83 94 163 156 205 80 53 243 77 359 53z m363 -1038 l0 -103
-457 -2 -458 -1 0 101 c0 55 3 103 6 106 3 3 209 5 457 4 l452 -1 0 -104z"/>
<path d="M5021 7052 c-54 -27 -96 -86 -95 -132 2 -77 87 -160 163 -160 71 0
164 75 176 144 10 53 -25 109 -89 141 -59 29 -108 32 -155 7z"/>
<path d="M5040 5601 c-45 -23 -80 -75 -80 -116 0 -65 81 -145 147 -145 99 0
163 104 118 191 -20 38 -91 89 -124 89 -15 0 -42 -8 -61 -19z"/>
<path d="M6435 5162 c-17 -11 -43 -34 -59 -53 -34 -40 -31 -80 9 -140 54 -82
144 -90 208 -20 61 67 55 154 -14 204 -39 28 -107 33 -144 9z m125 -72 c15
-29 12 -97 -6 -114 -9 -10 -33 -16 -59 -16 -39 0 -46 4 -60 30 -29 57 -10 125
38 132 32 5 76 -11 87 -32z"/>
<path d="M6448 5089 c-23 -13 -24 -66 -2 -97 17 -25 81 -31 102 -10 16 16 15
79 -2 101 -15 19 -70 23 -98 6z m76 -35 c10 -27 -6 -40 -18 -13 l-10 24 -4
-27 c-3 -29 -32 -40 -32 -13 0 37 52 61 64 29z"/>
<path d="M7132 4792 c-28 -9 -79 -56 -87 -82 -11 -35 22 -126 56 -154 76 -64
179 2 179 114 0 56 -26 96 -72 115 -41 16 -42 16 -76 7z"/>
<path d="M3176 4489 c-2 -8 -12 -39 -22 -69 -9 -30 -34 -89 -54 -130 -21 -41
-52 -111 -71 -155 -18 -44 -43 -99 -56 -122 -12 -23 -43 -92 -69 -154 -25 -62
-98 -224 -161 -359 -64 -135 -131 -281 -150 -325 -19 -44 -40 -92 -48 -107
l-13 -28 111 0 c62 0 122 -3 134 -6 18 -5 23 0 31 28 13 44 71 178 108 251
l30 58 252 2 252 2 81 -166 82 -167 141 -4 c77 -3 142 -4 144 -3 2 1 -14 31
-34 65 -20 35 -58 108 -84 164 -26 56 -83 175 -127 266 -43 91 -92 194 -108
230 -16 36 -79 164 -138 285 -60 121 -131 270 -159 330 -53 118 -65 137 -72
114z m87 -708 c37 -76 67 -146 67 -154 0 -12 -23 -16 -132 -19 -73 -2 -135 -3
-137 -1 -2 1 10 38 28 82 17 44 31 83 31 87 0 14 63 144 70 144 4 0 37 -63 73
-139z"/>
<path d="M5497 4407 c-9 -32 -7 -1341 2 -1355 4 -6 52 -12 126 -14 l120 -3 0
279 0 279 170 -6 c94 -4 230 -7 303 -7 l132 0 0 -229 c0 -125 3 -249 6 -275
l7 -46 123 0 124 0 0 513 c0 283 -3 594 -6 693 l-7 179 -123 1 -124 1 0 -298
c0 -235 -3 -297 -12 -294 -7 3 -140 6 -295 8 -156 2 -286 7 -290 11 -5 4 -9
136 -11 292 l-3 284 -99 -6 c-61 -3 -106 -1 -118 5 -17 9 -21 7 -25 -12z"/>
<path d="M4595 4400 c-67 -13 -173 -60 -248 -110 -123 -80 -228 -215 -285
-368 -33 -88 -42 -278 -18 -392 48 -228 221 -414 450 -485 114 -35 228 -48
315 -35 110 16 279 88 326 140 18 19 18 21 -1 42 -10 13 -27 28 -36 35 -9 7
-35 31 -58 53 -23 22 -45 40 -49 40 -4 0 -30 -11 -59 -25 -260 -125 -566 9
-636 280 -31 118 -13 315 34 375 11 14 31 41 44 61 26 38 120 97 198 125 104
36 254 28 366 -22 64 -28 62 -28 62 -9 0 12 36 56 122 147 24 25 25 30 10 35
-9 3 -56 25 -105 50 -48 24 -118 51 -155 58 -72 16 -211 18 -277 5z"/>
<path d="M7038 3838 c-2 -564 0 -789 8 -797 3 -3 52 -6 110 -8 59 -1 114 -5
123 -8 18 -5 19 86 14 973 l-3 403 -113 -2 c-62 -1 -119 1 -125 5 -9 5 -12
-129 -14 -566z"/>
<path d="M4126 2634 c2 -11 8 -59 12 -109 6 -77 10 -90 26 -93 14 -3 17 0 12
13 -3 9 -3 27 0 41 5 20 12 24 43 24 67 0 102 62 63 110 -15 18 -31 23 -89 27
-67 5 -71 4 -67 -13z m122 -48 c3 -3 -1 -13 -8 -21 -18 -22 -51 -15 -62 14 -8
23 -7 23 28 18 20 -3 39 -8 42 -11z"/>
<path d="M4445 2542 c0 -103 1 -107 22 -110 20 -3 22 1 21 32 -1 20 1 39 5 42
3 3 24 -12 46 -35 55 -56 95 -57 51 -1 -25 32 -25 43 0 65 27 24 25 61 -5 90
-20 21 -34 25 -82 25 l-58 0 0 -108z m113 36 c-4 -30 -47 -37 -65 -12 -21 28
-16 34 28 34 36 0 40 -2 37 -22z"/>
<path d="M4772 2617 c-41 -42 -48 -82 -24 -127 36 -66 102 -79 151 -29 53 52
53 108 1 160 -40 41 -86 40 -128 -4z m90 -34 c20 -18 24 -73 6 -91 -27 -27
-75 -6 -91 40 -7 20 28 68 50 68 9 0 25 -7 35 -17z"/>
<path d="M5130 2571 l0 -81 -41 0 -40 0 18 -30 c21 -37 51 -39 87 -5 25 24 27
29 24 107 -3 77 -5 83 -25 86 -22 3 -23 1 -23 -77z"/>
<path d="M5332 2543 l3 -108 68 -3 c54 -2 67 0 67 12 0 9 -16 20 -42 27 -67
18 -70 48 -5 49 20 0 27 5 27 20 0 17 -7 20 -40 20 -33 0 -40 3 -40 20 0 13 9
21 28 25 53 11 75 20 80 33 3 9 -16 12 -73 12 l-76 0 3 -107z"/>
<path d="M5614 2616 c-47 -47 -46 -84 4 -136 50 -53 88 -61 130 -25 38 32 39
37 7 51 -21 10 -26 9 -38 -9 -12 -18 -18 -20 -38 -11 -13 6 -30 23 -38 37 -12
23 -12 29 3 52 18 28 49 32 91 13 20 -9 28 -9 38 1 20 21 -35 61 -85 61 -32 0
-47 -7 -74 -34z"/>
<path d="M5906 2634 c-9 -23 2 -34 35 -34 l29 0 0 -66 c0 -70 12 -104 35 -104
12 0 15 17 15 85 l0 85 31 0 c25 0 30 4 27 21 -3 19 -11 22 -84 25 -68 3 -83
1 -88 -12z"/>
</g>
</svg>
